<svg width="78" height="78" viewBox="0 0 78 78" fill="none" xmlns="http://www.w3.org/2000/svg">
<path d="M36.1661 0.926147C37.6492 -0.308671 39.8033 -0.308834 41.2863 0.926147L41.3331 0.966187C42.531 1.96366 44.2002 2.17456 45.6085 1.50623L45.6642 1.47986C47.4077 0.652653 49.4939 1.18741 50.6232 2.75232L50.6593 2.8031C51.5715 4.06707 53.1349 4.68612 54.6652 4.38904L54.7257 4.37732C56.6202 4.0097 58.5075 5.04748 59.212 6.84412L59.2345 6.90173C59.8037 8.35293 61.1647 9.34116 62.7208 9.43396L62.7823 9.43787C64.7086 9.55292 66.279 11.0265 66.5148 12.9418L66.5226 13.0033C66.7129 14.5506 67.7845 15.8467 69.2687 16.3236L69.3273 16.3422C71.1645 16.9327 72.3185 18.7516 72.0704 20.6654L72.0626 20.7269C71.8623 22.2728 72.5787 23.7944 73.8976 24.6254L73.9503 24.6586C75.5825 25.6874 76.2481 27.7351 75.5323 29.5267L75.5089 29.5844C74.9303 31.0319 75.2457 32.6839 76.3165 33.8168L76.3585 33.8627C77.684 35.2652 77.8201 37.4145 76.6808 38.972L76.6437 39.0219C75.7234 40.28 75.6178 41.9581 76.3732 43.3217L76.4034 43.3763C77.3384 45.0644 76.9342 47.1794 75.4435 48.4047L75.3956 48.4447C74.1915 49.4345 73.672 51.0339 74.0646 52.5424L74.0802 52.6019C74.5662 54.4696 73.6492 56.4186 71.9005 57.2347L71.8439 57.2601C70.4312 57.9193 69.5302 59.3399 69.5353 60.8988V60.9603C69.5416 62.8901 68.1692 64.549 66.2726 64.9047L66.2111 64.9164C64.6791 65.2036 63.4533 66.3548 63.0704 67.8656L63.0558 67.9261C62.582 69.7969 60.8388 71.0622 58.9132 70.9349L58.8517 70.931C57.2962 70.8281 55.8229 71.6388 55.0763 73.0072L55.046 73.0609C54.1218 74.7551 52.1197 75.5479 50.2863 74.9457L50.2277 74.9261C48.7467 74.4396 47.1173 74.8587 46.0538 75.9984L46.0118 76.0433C44.6954 77.4545 42.5588 77.7242 40.9327 76.6849L40.88 76.6517C39.5666 75.8124 37.8848 75.8124 36.5714 76.6517L36.5197 76.6849C34.8936 77.7243 32.7571 77.4544 31.4406 76.0433L31.3976 75.9984C30.3343 74.8587 28.7056 74.4398 27.2247 74.9261L27.1661 74.9457C25.3326 75.5481 23.3297 74.7551 22.4054 73.0609L22.3761 73.0072C21.6297 71.6389 20.156 70.8284 18.6007 70.931L18.5382 70.9349C16.6126 71.0623 14.8705 69.7969 14.3966 67.9261L14.382 67.8656C13.9991 66.3547 12.7724 65.2036 11.2404 64.9164L11.1798 64.9047C9.28285 64.5492 7.90983 62.8903 7.91614 60.9603V60.8988C7.92121 59.34 7.02009 57.9193 5.60754 57.2601L5.55188 57.2347C3.80291 56.4187 2.88612 54.4697 3.37219 52.6019L3.38782 52.5424C3.78035 51.0338 3.26 49.4345 2.05579 48.4447L2.00793 48.4047C0.517125 47.1793 0.113848 45.0644 1.04895 43.3763L1.07922 43.3217C1.83435 41.9583 1.72876 40.2799 0.808716 39.0219L0.771606 38.972C-0.367784 37.4145 -0.23248 35.2652 1.0929 33.8627L1.13586 33.8168C2.20639 32.6839 2.52197 31.0317 1.94348 29.5844L1.92004 29.5267C1.20404 27.7348 1.86948 25.6873 3.50208 24.6586L3.55481 24.6254C4.8735 23.7944 5.5891 22.2727 5.38879 20.7269L5.38098 20.6654C5.13284 18.7515 6.28676 16.9326 8.12415 16.3422L8.18372 16.3236C9.6676 15.8466 10.7395 14.5504 10.9298 13.0033L10.9376 12.9418C11.1735 11.0266 12.7429 9.55291 14.6691 9.43787L14.7316 9.43396C16.2873 9.34094 17.6478 8.35265 18.2169 6.90173L18.2394 6.84412C18.944 5.04755 20.8313 4.00965 22.7257 4.37732L22.7872 4.38904C24.3174 4.68583 25.881 4.06709 26.7931 2.8031L26.8292 2.75232C27.9586 1.18759 30.0448 0.652493 31.7882 1.47986L31.8439 1.50623C33.2521 2.17438 34.9205 1.96356 36.1183 0.966187L36.1661 0.926147ZM38.7257 5.2113C20.1784 5.21148 5.14292 20.247 5.1427 38.7943C5.1427 57.3418 20.1783 72.3771 38.7257 72.3773C57.2731 72.3771 72.3087 57.3417 72.3087 38.7943C72.3085 20.2471 57.273 5.21151 38.7257 5.2113ZM38.7257 7.79431C55.8462 7.79452 69.7255 21.6738 69.7257 38.7943C69.7257 55.915 55.8464 69.7941 38.7257 69.7943C21.605 69.7941 7.72571 55.915 7.72571 38.7943C7.72593 21.6738 21.6052 7.79449 38.7257 7.79431ZM32.3009 17.7943C30.8522 17.7945 29.6779 18.9696 29.6779 20.4183V42.1146C29.6779 42.5395 29.1728 42.7618 28.8595 42.475L24.9728 38.9164C24.118 38.1337 22.9002 37.8517 21.8058 38.2328C20.9893 38.5176 20.2803 39.1141 19.8741 39.9545C19.3738 41.593 20.2068 42.8952 21.3702 44.0052C21.7649 44.3818 25.6794 48.1544 26.0148 48.4867C26.0148 48.4867 29.3187 51.8554 29.5011 52.0814C31.3453 54.3769 33.1931 56.682 36.4825 56.682H45.7198C50.0063 56.682 53.5053 53.3135 53.7159 49.0795C53.7222 49.0059 53.7257 48.9319 53.7257 48.8568V32.7494C53.7255 31.3008 52.5513 30.1265 51.1027 30.1263C49.6539 30.1263 48.4789 31.3007 48.4786 32.7494V32.7982C48.4786 33.0844 48.2472 33.3166 47.9611 33.3168C47.6841 33.3168 47.4592 33.0918 47.4591 32.8148V31.4828C47.4591 30.034 46.2848 28.8589 44.8361 28.8588C43.3872 28.8588 42.213 30.0339 42.213 31.4828V32.7933C42.213 33.0823 41.9785 33.3168 41.6896 33.3168H41.6613C41.4021 33.3166 41.1926 33.1062 41.1925 32.847V30.6761H41.1915C41.1914 29.2274 40.0163 28.0531 38.5675 28.0531C37.1188 28.0533 35.9446 29.2275 35.9445 30.6761V32.8441C35.9445 33.105 35.7327 33.3168 35.4718 33.3168H35.3331C35.1076 33.3166 34.9249 33.1332 34.9249 32.9076V20.4183C34.9249 18.9695 33.7498 17.7943 32.3009 17.7943Z" fill="white"/>
</svg>
