<svg width="72" height="80" viewBox="0 0 72 80" fill="none" xmlns="http://www.w3.org/2000/svg">
<path d="M1.34668 7.1601C13.9808 1.41976 27.2719 -0.565698 41.042 0.134705C51.232 0.653003 61.0151 2.90417 70.3994 6.9267C71.5229 7.40813 71.9052 8.00434 71.8818 9.21283C71.8049 13.1283 71.8535 17.0469 71.8535 20.9638C71.9253 26.1222 72.297 31.2937 71.4785 36.4257C68.6474 54.174 59.1204 67.1704 43.4863 75.8242C41.3433 77.0104 39.1374 78.0603 36.8428 78.9277C36.1721 79.181 35.5786 79.2077 34.9199 78.9277C15.6911 70.7529 3.66138 56.8312 0.519531 35.8242C-0.314769 30.2444 0.102823 24.6271 0.116211 19.0244C0.124344 15.6416 0.238342 12.2592 0.241211 8.87689C0.242204 7.99436 0.534852 7.52872 1.34668 7.1601ZM63.5547 8.07904C51.9962 3.94315 40.0666 2.82654 27.9004 3.83588C20.0403 4.48806 12.4561 6.3212 5.16113 9.35834C3.94743 9.86371 3.50414 10.5201 3.53809 11.832C3.62606 15.2138 3.56738 18.5996 3.56738 21.9833H3.43848C3.43848 24.5213 3.42991 27.0597 3.44043 29.5976C3.46099 34.4861 4.1899 39.2742 5.70703 43.9169C10.574 58.812 20.5938 68.9205 34.8057 75.1191C35.6309 75.4791 36.341 75.3631 37.1084 75.037C40.6016 73.5515 43.9267 71.7601 47.0283 69.5693C59.8183 60.5369 67.1325 48.2959 68.4561 32.6367C69.0719 25.3474 68.3163 18.0385 68.4746 10.7392C68.4865 10.1914 68.2293 9.95455 67.7627 9.7724C66.3543 9.22259 64.977 8.58819 63.5547 8.07904ZM25.6709 6.76556C36.6159 5.49086 47.4379 6.14576 58.0908 9.06049C60.3655 9.68298 62.5704 10.514 64.7725 11.3574C65.5689 11.6624 65.8361 12.1091 65.8252 12.9404C65.7855 16.0104 65.8096 19.0818 65.8096 22.1523L65.8086 22.1533C66.1815 28.7123 66.0615 35.2327 64.1523 41.6005C59.7946 56.1329 50.3391 66.0852 36.6855 72.2919C36.1204 72.5487 35.632 72.548 35.042 72.3076C18.0151 65.3722 6.13589 47.8714 6.1123 29.5956C6.10513 24.033 6.21414 18.4693 6.2041 12.9062C6.20224 11.9816 6.65416 11.6924 7.35938 11.3994C13.2375 8.95852 19.3691 7.4995 25.6709 6.76556ZM45.084 20.8632C42.4997 16.1786 36.963 14.2129 32.1973 16.455C28.288 18.2946 26.328 21.5582 26.127 25.8486C26.044 27.6143 26.1119 29.3875 26.1113 31.1572V31.4833C25.7483 31.5307 25.4196 31.5371 25.1123 31.6201C23.9957 31.9208 23.2793 32.9025 23.2773 34.1406C23.2663 39.4066 23.2633 44.6723 23.2588 49.9384C23.2576 51.383 24.3653 52.5034 25.8145 52.5068C30.6054 52.5178 35.3972 52.5256 40.1875 52.5283C42.3886 52.5296 44.5899 52.5202 46.791 52.5078C48.014 52.5013 49.0825 51.6041 49.2637 50.4111C49.3194 50.0417 49.2781 49.6575 49.2773 49.2802C49.2656 44.1761 49.2533 39.0718 49.2402 33.9677C49.2375 32.8938 48.5842 31.9719 47.5557 31.6523C47.1927 31.5395 46.7985 31.5251 46.3545 31.455V31.162C46.3545 29.4028 46.3575 27.6439 46.3535 25.8847C46.3496 24.1054 45.9447 22.424 45.084 20.8632ZM34.1299 38.4726C35.014 37.2845 36.6737 37.0533 37.834 37.956C39.2705 39.0748 39.1099 41.2477 37.5127 42.0937C37.2004 42.259 37.2219 42.4702 37.2666 42.7353C37.5051 44.1588 37.7415 45.5826 37.9775 47.0068C38.0378 47.3736 38.0265 47.3837 37.6416 47.3837C37.1775 47.3843 36.7132 47.3837 36.249 47.3837V47.3857C35.7746 47.3857 35.2996 47.3741 34.8252 47.3896C34.5659 47.398 34.505 47.2906 34.542 47.0585C34.7481 45.7609 34.9485 44.4613 35.1514 43.163C35.1597 43.11 35.1645 43.0558 35.1807 43.0048C35.3311 42.5265 35.2112 42.2428 34.7393 41.9472C33.5683 41.2127 33.3193 39.5609 34.1299 38.4726ZM31.7217 21.5761C34.3554 18.6306 39.0523 18.9422 41.3555 22.2079C42.1021 23.2657 42.5318 24.4463 42.5635 25.7363C42.6095 27.6024 42.5935 29.47 42.6025 31.3369C42.6031 31.3893 42.5895 31.4411 42.5791 31.5195H29.957V30.9208C29.9557 29.4099 29.9363 27.8986 29.957 26.3876C29.9817 24.5831 30.4999 22.9425 31.7217 21.5761Z" fill="white"/>
</svg>
