<svg width="23" height="32" viewBox="0 0 23 32" fill="none" xmlns="http://www.w3.org/2000/svg">
<path d="M17.5704 9.58002C18.9927 8.99598 20.3992 7.581 21.3748 6.39928C21.5967 6.13046 22.1142 6.33438 22.0743 6.6807C21.881 8.35966 21.4428 10.6056 19.3633 12.0901C18.082 13.0047 16.3573 13.5771 15.4703 13.784C15.295 13.8249 15.1742 13.9914 15.1948 14.1703C15.3372 15.4069 15.4646 18.178 15.0604 21.7716C14.5416 26.3839 12.1583 29.6135 10.4968 31.1477C10.2597 31.3667 9.91117 31.1194 9.99677 30.8082C10.3203 29.6318 10.674 27.9191 10.7574 26.4331C10.8481 24.8187 10.855 23.8993 10.8297 23.0461C10.82 22.7167 10.3675 22.6015 10.1792 22.872C9.59013 23.7182 8.66141 24.8331 7.17166 26.0746C5.87053 27.1588 3.65894 27.8491 2.19906 28.1169C1.91352 28.1693 1.7409 27.8533 1.93239 27.6351C3.35905 26.0094 5.31747 24.1942 6.56776 20.9888C7.20179 19.3633 7.52329 16.8895 7.53424 15.336C7.53565 15.1361 7.35444 14.9878 7.15764 15.0227C6.18564 15.1952 5.17528 15.4394 3.58589 16.393C2.42851 17.0874 1.5839 17.8622 0.928644 18.5617C0.690502 18.8159 0.206014 18.5809 0.276598 18.2398C0.569019 16.8266 1.13544 14.9962 3.22732 13.1658C4.8786 11.7209 7.17166 11.0143 10.0403 10.6558C12.9089 10.2972 15.4555 10.4485 17.5704 9.58002Z" fill="#2C2C37"/>
<circle cx="10.0401" cy="7.06967" r="2.86862" fill="#2C2C37"/>
<path d="M15.3856 0.257183C16.2733 -0.334599 17.2847 0.199726 17.8655 0.804146C18.0536 0.999876 18.4585 1.00204 18.6513 0.810911C19.2494 0.217821 20.2928 -0.296136 21.1228 0.257182C22.1986 0.974336 21.4814 2.76722 20.7642 3.84295C20.2489 4.616 19.1163 5.6398 18.458 6.18663C18.3395 6.28508 18.1689 6.28508 18.0504 6.18663C17.3922 5.6398 16.2595 4.616 15.7442 3.84295C15.027 2.76722 14.3099 0.974334 15.3856 0.257183Z" fill="#2C2C37"/>
</svg>
