<svg width="30" height="25" viewBox="0 0 30 25" fill="none" xmlns="http://www.w3.org/2000/svg">
<g clip-path="url(#clip0_3_1002)">
<path d="M10.9728 16.3342C11.3985 15.6412 11.8024 14.9638 12.2253 14.2984C13.9418 11.5986 15.9311 9.11337 18.1503 6.81155C20.1255 4.76245 22.2299 2.86247 24.6207 1.30167C25.403 0.790968 26.2053 0.310372 27.1322 0.0975512C27.7437 -0.0428124 28.3534 -0.0421123 28.9509 0.166158C29.8404 0.475938 30.1855 1.17986 29.9037 2.08049C29.7417 2.59819 29.4144 3.00528 29.0283 3.36407C28.2782 4.06168 27.5161 4.74705 26.7559 5.43382C22.3997 9.3689 18.8381 13.9344 16.0018 19.0652C15.1141 20.6711 14.2996 22.3184 13.4798 23.9611C13.247 24.4277 12.9246 24.6724 12.4171 24.7231C11.2119 24.8435 10.0082 24.8425 8.80334 24.72C8.35179 24.6741 8.04691 24.4624 7.82884 24.0465C7.05772 22.5753 6.30445 21.0919 5.45876 19.6637C4.13984 17.4372 2.50168 15.4574 0.576842 13.7202C0.430527 13.5882 0.286314 13.451 0.161351 13.2998C-0.0633703 13.0275 -0.0549695 12.7579 0.191104 12.5049C0.316767 12.376 0.463081 12.2588 0.619546 12.1702C1.74805 11.5304 2.88531 10.9059 4.01207 10.2625C4.74014 9.84669 5.41431 9.9398 6.07762 10.4057C7.15713 11.1639 8.04972 12.1118 8.86529 13.1374C9.61787 14.0839 10.2882 15.086 10.8643 16.1498C10.893 16.2026 10.9252 16.2537 10.9725 16.3342H10.9728Z" fill="#104E8B"/>
</g>
<defs>
<clipPath id="clip0_3_1002">
<rect width="30" height="24.8128" fill="white"/>
</clipPath>
</defs>
</svg>
